<?xml version="1.0" encoding="utf-8"?>
<!-- Generator: Adobe Illustrator 19.1.0, SVG Export Plug-In . SVG Version: 6.00 Build 0)  -->
<!DOCTYPE svg PUBLIC "-//W3C//DTD SVG 1.1//EN" "http://www.w3.org/Graphics/SVG/1.1/DTD/svg11.dtd">
<svg version="1.1" id="Layer_1" xmlns="http://www.w3.org/2000/svg" xmlns:xlink="http://www.w3.org/1999/xlink" x="0px" y="0px"
	 viewBox="0 0 162.8 52.3" style="enable-background:new 0 0 162.8 52.3;" xml:space="preserve">
<style type="text/css">
	.st0{fill:#000000;}
</style>
<path class="st0" d="M36.7,34.6c-0.1-0.8-0.9-1.4-1.7-1.3l-20.9,2.2l-0.1,0l1.5-9.3h11.6l-0.9,5.4l3.1-0.3l1-6.4
	c0.1-0.4-0.1-0.9-0.3-1.2c-0.3-0.3-0.7-0.5-1.1-0.5H16l0.8-5.2h0.5c0.6,0,1-0.5,1-1s-0.5-1-1-1H11c-0.6,0-1,0.5-1,1s0.5,1,1,1h0.2
	L8.2,36.1l-6.8,0.7C0.6,36.9,0,37.6,0,38.5c0,0.5,0.2,5,3.1,8.7c0.2,0.2,0.5,0.4,0.8,0.4c0.1,0,0.1,0,0.2,0
	c8.1-1.7,12.8-1.1,17.4-0.6c3.7,0.4,7.3,0.8,12.3,0.1c0.3,0,0.5-0.2,0.7-0.5C35.9,44.1,37.6,40,36.7,34.6z"/>
<g>
	<circle class="st0" cx="22.8" cy="29.2" r="1.6"/>
</g>
<g>
	<circle class="st0" cx="18.2" cy="29.2" r="1.6"/>
</g>
<g>
	<g>
		<path class="st0" d="M3.8,50.9"/>
	</g>
	<g>
		<path class="st0" d="M28.3,52.3c-2.5,0-4.8-0.3-7.1-0.5c-3.2-0.4-6.5-0.7-11-0.3c-1.4,0.1-2.9,0.3-4.4,0.6
			c-0.8,0.2-1.6-0.4-1.7-1.2c-0.1-0.8,0.4-1.6,1.2-1.7c1.6-0.3,3.2-0.5,4.7-0.7c4.8-0.4,8.2-0.1,11.6,0.3c3.6,0.4,7.1,0.8,11.9,0.1
			c0.8-0.1,1.6,0.5,1.7,1.3c0.1,0.8-0.5,1.6-1.3,1.7C31.9,52.2,30,52.3,28.3,52.3z"/>
	</g>
</g>
<g>
	<g>
		<g>
			<path class="st0" d="M52.1,33.7c0-0.6-0.3-0.9-0.9-0.9h-4c-0.5,0-0.9-0.3-0.9-0.9v-3.2c0-0.6,0.3-0.9,0.9-0.9H62
				c0.6,0,0.9,0.3,0.9,0.9V32c0,0.5-0.3,0.9-0.9,0.9h-4c-0.5,0-0.9,0.3-0.9,0.9v13.5c0,0.5-0.3,0.9-0.9,0.9H53
				c-0.5,0-0.9-0.3-0.9-0.9V33.7z"/>
		</g>
	</g>
	<g>
		<g>
			<path class="st0" d="M68.5,27.9c0.6,0,0.9,0.3,0.9,0.9v11.3c0,2.2,0.1,3.6,2.3,3.6c2.1,0,2.3-1.4,2.3-3.6V28.8
				c0-0.6,0.3-0.9,0.9-0.9H78c0.6,0,0.9,0.3,0.9,0.9v12.9c0,1.9-0.4,7-7.3,7c-6.9,0-7.3-5.1-7.3-7V28.8c0-0.6,0.3-0.9,0.9-0.9H68.5z
				"/>
		</g>
	</g>
	<g>
		<g>
			<path class="st0" d="M81,34.4c0-1.9,0.4-7,7.3-7c6.1,0,7.1,4,7.2,6.2c0,0.5-0.2,0.8-0.8,1l-3.3,0.7c-0.6,0.1-0.9-0.1-1-0.8
				c-0.1-1.4-0.6-2.2-2.3-2.2c-2.1,0-2.3,1.4-2.3,3.6v4.2c0,2.2,0.1,3.6,2.3,3.6c2.1,0,2.3-1.4,2.3-2.8h-1.7c-0.5,0-0.9-0.3-0.9-0.9
				v-2.3c0-0.6,0.3-0.9,0.9-0.9h5.8c0.6,0,0.9,0.3,0.9,0.9v3.9c0,1.9-0.4,7-7.3,7c-6.9,0-7.3-5.1-7.3-7V34.4z"/>
		</g>
	</g>
	<g>
		<g>
			<path class="st0" d="M104.9,27.9c5.4,0,7.5,2.2,7.5,6.9c0,1-0.3,2.9-1.5,4.2c1.2,0.5,2.1,2,2.1,3.8c0,3.6-1.6,5.3-7,5.3h-7.1
				c-0.5,0-0.9-0.3-0.9-0.9V28.8c0-0.6,0.3-0.9,0.9-0.9H104.9z M105.6,44c1.4,0,2.1-0.1,2.1-1.5s-0.6-1.6-2-1.6h-1.9
				c-0.5,0-0.9,0.3-0.9,0.9v1.3c0,0.6,0.3,0.9,0.9,0.9H105.6z M105.4,36.8c1.4,0,2.1-0.2,2.1-2c0-1.8-0.7-2-2.1-2h-1.6
				c-0.5,0-0.9,0.3-0.9,0.9v2.2c0,0.6,0.3,0.9,0.9,0.9H105.4z"/>
		</g>
	</g>
	<g>
		<g>
			<path class="st0" d="M129,41.6c0,1.9-0.4,7-7.3,7s-7.3-5.1-7.3-7v-7.2c0-1.9,0.4-7,7.3-7s7.3,5.1,7.3,7V41.6z M124.1,35.9
				c0-2.2-0.1-3.6-2.3-3.6c-2.1,0-2.3,1.4-2.3,3.6v4.2c0,2.2,0.1,3.6,2.3,3.6c2.1,0,2.3-1.4,2.3-3.6V35.9z"/>
		</g>
	</g>
	<g>
		<g>
			<path class="st0" d="M145,47.2c0,0.6-0.3,1-0.9,1h-3.2c-0.5,0-0.9-0.3-0.9-0.9v-2.5c0-0.6-0.3-0.9-0.9-0.9h-2.5
				c-0.5,0-0.9,0.3-0.9,0.9v2.5c0,0.6-0.3,0.9-0.9,0.9h-3.2c-0.5,0-0.9-0.3-0.9-1V34.9c0-3.6,0.6-7.5,7.1-7.5c6.5,0,7.1,3.9,7.1,7.5
				V47.2z M140,34.9c0-1.4-0.2-2.1-2.1-2.1c-1.9,0-2.1,0.7-2.1,2.1V38c0,0.5,0.3,0.9,0.9,0.9h2.5c0.6,0,0.9-0.3,0.9-0.9V34.9z"/>
		</g>
	</g>
	<g>
		<g>
			<path class="st0" d="M152,33.7c0-0.6-0.3-0.9-0.9-0.9h-4c-0.5,0-0.9-0.3-0.9-0.9v-3.2c0-0.6,0.3-0.9,0.9-0.9h14.8
				c0.6,0,0.9,0.3,0.9,0.9V32c0,0.5-0.3,0.9-0.9,0.9h-4c-0.5,0-0.9,0.3-0.9,0.9v13.5c0,0.5-0.3,0.9-0.9,0.9h-3.2
				c-0.5,0-0.9-0.3-0.9-0.9V33.7z"/>
		</g>
	</g>
</g>
<g>
	<path class="st0" d="M7.1,38.8"/>
</g>
<g>
	<g>
		<path class="st0" d="M13.3,13.6c-0.3,0-0.7-0.1-0.9-0.4c-0.5-0.5-0.5-1.3,0-1.9l1.5-1.5l-1.5-1.5c-0.5-0.5-0.5-1.3,0-1.9
			c0.5-0.5,1.3-0.5,1.9,0l2.5,2.5c0.5,0.5,0.5,1.3,0,1.9l-2.5,2.5C14,13.5,13.6,13.6,13.3,13.6z"/>
	</g>
</g>
<g>
	<g>
		<path class="st0" d="M3.8,5.6c-0.3,0-0.5-0.1-0.7-0.3L1.2,3.5C1,3.3,0.9,3.1,0.9,2.8S1,2.3,1.2,2.1l1.8-1.8c0.4-0.4,1-0.4,1.4,0
			c0.4,0.4,0.4,1,0,1.4L3.3,2.8L4.5,4c0.4,0.4,0.4,1,0,1.4C4.3,5.5,4,5.6,3.8,5.6z"/>
	</g>
</g>
<g>
	<g>
		<path class="st0" d="M6.3,9.4C6,9.4,5.8,9.3,5.6,9.1c-0.4-0.4-0.4-1,0-1.4l3.2-3.2c0.4-0.4,1-0.4,1.4,0c0.4,0.4,0.4,1,0,1.4L7,9.1
			C6.8,9.3,6.5,9.4,6.3,9.4z"/>
	</g>
</g>
</svg>
